<svg xmlns:xlink="http://www.w3.org/1999/xlink" xmlns="http://www.w3.org/2000/svg" width="32" height="32" viewBox="0 0 29 29" fill="none" preserveAspectRatio="xMidYMid meet" aria-hidden="true" role="img">
<path d="M10.8953 16.5554C10.9818 17.3476 11.6108 17.976 12.4028 18.0644C14.4824 18.2966 16.6555 18.5967 18.8917 18.5967C21.1278 18.5967 23.301 18.2966 25.3806 18.0644C26.1725 17.976 26.8015 17.3476 26.8881 16.5554C27.1144 14.4837 27.3971 12.3188 27.3971 10.0913C27.3971 7.86378 27.1144 5.69891 26.8881 3.62724C26.8015 2.83507 26.1725 2.2066 25.3806 2.11819C23.301 1.88603 21.1278 1.58591 18.8917 1.58591C16.6555 1.58591 14.4824 1.88603 12.4028 2.11819C11.6108 2.2066 10.9818 2.83507 10.8953 3.62724C10.669 5.69891 10.3863 7.86378 10.3863 10.0913C10.3863 12.3188 10.669 14.4837 10.8953 16.5554Z" fill="#FFFFFF"></path>
<path d="M27.2606 7.17618L10.5228 7.17617C10.6001 6.26429 10.701 5.3659 10.8001 4.48328C10.8191 4.31377 10.8381 4.14483 10.8568 3.9765C10.9674 2.98222 11.758 2.19221 12.752 2.07873C12.9627 2.05467 13.1744 2.03013 13.3869 2.00549C15.1648 1.79936 17.0059 1.58591 18.8917 1.58591C20.7775 1.58591 22.6186 1.79936 24.3965 2.00549C24.609 2.03013 24.8207 2.05467 25.0314 2.07873C26.0254 2.19221 26.816 2.98222 26.9266 3.9765C26.9453 4.14483 26.9643 4.31376 26.9833 4.48328C27.0824 5.36589 27.1833 6.26429 27.2606 7.17618Z" fill="#C1EC3A"></path>
<path d="M27.2606 7.17615H18.133" stroke="#020202" stroke-width="2.475px" stroke-linecap="round" stroke-linejoin="round" fill="none"></path>
<path d="M23.5797 18.2711C24.1871 18.2023 24.7876 18.1306 25.3804 18.0644C26.1724 17.976 26.8015 17.3476 26.888 16.5554C27.1143 14.4837 27.397 12.3188 27.397 10.0913C27.397 7.86378 27.1143 5.69891 26.888 3.62724C26.8015 2.83507 26.1725 2.2066 25.3805 2.11819C23.301 1.88603 21.1278 1.58591 18.8916 1.58591C16.6555 1.58591 14.4823 1.88603 12.4028 2.11819C11.6108 2.2066 10.9818 2.83512 10.8953 3.62729C10.8132 4.37867 10.7237 5.14232 10.6429 5.91677" stroke="#020202" stroke-width="2.475px" stroke-linecap="round" stroke-linejoin="round" fill="none"></path>
<path d="M2.07854 25.4055C2.16508 26.1977 2.79409 26.8261 3.58605 26.9145C5.66559 27.1467 7.83879 27.4468 10.0749 27.4468C12.3111 27.4468 14.4842 27.1467 16.5638 26.9145C17.3558 26.8261 17.9848 26.1977 18.0713 25.4055C18.2976 23.3338 18.5803 21.1689 18.5803 18.9414C18.5803 16.7139 18.2976 14.549 18.0713 12.4773C17.9848 11.6852 17.3558 11.0567 16.5638 10.9683C14.4842 10.7361 12.3111 10.436 10.0749 10.436C7.83879 10.436 5.66559 10.7361 3.58604 10.9683C2.79409 11.0567 2.16508 11.6852 2.07854 12.4773C1.85224 14.549 1.56952 16.7139 1.56952 18.9414C1.56952 21.1689 1.85224 23.3338 2.07854 25.4055Z" fill="#FFFFFF" stroke="#020202" stroke-width="2.475px" stroke-linecap="round" stroke-linejoin="round"></path>
<path d="M18.4438 16.0263L1.70597 16.0263C1.78331 15.1144 1.88417 14.216 1.98327 13.3334C2.0023 13.1639 2.02127 12.9949 2.03999 12.8266C2.15057 11.8323 2.94123 11.0423 3.93518 10.9288C4.14591 10.9048 4.35756 10.8802 4.57012 10.8556C6.348 10.6495 8.18907 10.436 10.0749 10.436C11.9607 10.436 13.8018 10.6495 15.5797 10.8556C15.7922 10.8802 16.0039 10.9048 16.2146 10.9288C17.2086 11.0423 17.9992 11.8323 18.1098 12.8266C18.1285 12.9949 18.1475 13.1639 18.1665 13.3334C18.2656 14.216 18.3665 15.1144 18.4438 16.0263Z" fill="#C1EC3A" stroke="#020202" stroke-width="2.475px" stroke-linecap="round" stroke-linejoin="round"></path>
</svg>